<svg width="19" height="20" viewBox="0 0 19 20" fill="none" xmlns="http://www.w3.org/2000/svg">
<path fill-rule="evenodd" clip-rule="evenodd" d="M9.32831 4.16416C10.8005 4.16416 11.994 5.35761 11.994 6.82982C11.994 8.30202 10.8005 9.49548 9.32831 9.49548C7.85611 9.49548 6.66265 8.30202 6.66265 6.82982C6.66265 5.35761 7.85611 4.16416 9.32831 4.16416ZM9.99397 6.82982C9.99397 6.46218 9.69595 6.16416 9.32831 6.16416C8.96068 6.16416 8.66265 6.46218 8.66265 6.82982C8.66265 7.19745 8.96068 7.49548 9.32831 7.49548C9.69595 7.49548 9.99397 7.19745 9.99397 6.82982Z" fill="#50545C"/>
<path fill-rule="evenodd" clip-rule="evenodd" d="M0 4C0 1.79086 1.79086 0 4 0H14.6566C16.8658 0 18.6566 1.79086 18.6566 4V9.65964C18.6566 10.2046 18.5476 10.7241 18.3503 11.1976L18.0701 13.2574C17.9592 14.0726 17.6132 14.7904 17.1134 15.358C17.1001 15.3993 17.084 15.4403 17.065 15.4807L16.1174 17.4892C15.0512 19.749 12.1972 20.489 10.1673 19.032L1.57751 12.8664C1.50516 12.8144 1.44181 12.7546 1.38778 12.689C0.537911 11.9555 0 10.8704 0 9.65964V4ZM14.6566 13.6596C15.118 13.6596 15.5611 13.5815 15.9734 13.4378C15.6104 14.3843 14.5661 14.9366 13.545 14.6379L10.2013 13.6596H14.6566ZM2.69978 2.48027C2.27144 2.84708 2 3.39184 2 4V9.65964C2 10.2678 2.27144 10.8125 2.69978 11.1794C2.57342 11.0119 2.49849 10.8035 2.49849 10.5776C2.49849 10.0253 2.94621 9.57756 3.49849 9.57756H5.16416C5.71644 9.57756 6.16416 10.0253 6.16416 10.5776C6.16416 11.1298 5.71644 11.5776 5.16416 11.5776H3.49849C3.4725 11.5776 3.44674 11.5766 3.42125 11.5746C3.60446 11.6299 3.79876 11.6596 4 11.6596H14.6566C14.8579 11.6596 15.0522 11.6299 15.2354 11.5746C15.2099 11.5766 15.1841 11.5776 15.1581 11.5776H13.4925C12.9402 11.5776 12.4925 11.1298 12.4925 10.5776C12.4925 10.0253 12.9402 9.57756 13.4925 9.57756H15.1581C15.7104 9.57756 16.1581 10.0253 16.1581 10.5776C16.1581 10.8035 16.0832 11.0119 15.9568 11.1794C16.3852 10.8126 16.6566 10.2678 16.6566 9.65964V4C16.6566 3.39184 16.3852 2.84709 15.9568 2.48027C16.0832 2.64771 16.1581 2.85614 16.1581 3.08208C16.1581 3.63436 15.7104 4.08208 15.1581 4.08208H13.4925C12.9402 4.08208 12.4925 3.63436 12.4925 3.08208C12.4925 2.52979 12.9402 2.08208 13.4925 2.08208H15.1581C15.1841 2.08208 15.2099 2.08307 15.2354 2.08502C15.0522 2.02972 14.8579 2 14.6566 2H4C3.79876 2 3.60446 2.02972 3.42125 2.08502C3.44674 2.08307 3.4725 2.08208 3.49849 2.08208H5.16416C5.71644 2.08208 6.16416 2.52979 6.16416 3.08208C6.16416 3.63436 5.71644 4.08208 5.16416 4.08208H3.49849C2.94621 4.08208 2.49849 3.63436 2.49849 3.08208C2.49849 2.85614 2.57342 2.64771 2.69978 2.48027ZM14.2681 16.7169C13.8467 16.7337 13.414 16.6834 12.9834 16.5574L8.19989 15.1579L11.3336 17.4072C12.3238 18.118 13.7064 17.7831 14.2681 16.7169Z" fill="#50545C"/>
</svg>
