<svg width="16" height="16" viewBox="0 0 16 16" fill="none" xmlns="http://www.w3.org/2000/svg">
<path fill-rule="evenodd" clip-rule="evenodd" d="M3.24967 2.66602H12.3336C13.4382 2.66602 14.3336 3.56145 14.3336 4.66602V5.3938C14.3336 5.78865 14.2167 6.17466 13.9977 6.5032L13.6441 7.03364C13.246 7.63081 13.1984 8.39552 13.5194 9.03746L14.1225 10.2437C14.2613 10.5214 14.3336 10.8277 14.3336 11.1381L14.3336 11.3327C14.3336 12.4372 13.4382 13.3327 12.3336 13.3327H3.33363C2.22906 13.3327 1.33363 12.4373 1.33363 11.3327V11.2396C1.33363 10.8648 1.43897 10.4975 1.63763 10.1796L2.3378 9.05935C2.74314 8.41081 2.74314 7.58789 2.3378 6.93935L1.56579 5.70414C1.41286 5.45944 1.31509 5.18435 1.2793 4.89802C1.13115 3.71284 2.05527 2.66602 3.24967 2.66602ZM5.33363 4.33268C5.33363 3.96449 5.03515 3.66602 4.66697 3.66602C4.29878 3.66602 4.0003 3.96449 4.0003 4.33268V5.66602C4.0003 6.03421 4.29878 6.33268 4.66697 6.33268C5.03515 6.33268 5.33363 6.03421 5.33363 5.66602V4.33268ZM4.66697 6.66602C5.03515 6.66602 5.33363 6.96449 5.33363 7.33268V8.66602C5.33363 9.03421 5.03515 9.33268 4.66697 9.33268C4.29878 9.33268 4.0003 9.03421 4.0003 8.66602V7.33268C4.0003 6.96449 4.29878 6.66602 4.66697 6.66602ZM5.33363 10.3327C5.33363 9.96449 5.03515 9.66602 4.66697 9.66602C4.29878 9.66602 4.0003 9.96449 4.0003 10.3327V11.666C4.0003 12.0342 4.29878 12.3327 4.66697 12.3327C5.03515 12.3327 5.33363 12.0342 5.33363 11.666V10.3327Z" fill="#71717A"/>
</svg>
