<svg width="16" height="16" viewBox="0 0 16 16" fill="none" xmlns="http://www.w3.org/2000/svg">
<path d="M8 8.66683C9.47276 8.66683 10.6667 7.47292 10.6667 6.00016C10.6667 4.5274 9.47276 3.3335 8 3.3335C6.52724 3.3335 5.33333 4.5274 5.33333 6.00016C5.33333 7.47292 6.52724 8.66683 8 8.66683Z" fill="#DC781B"/>
<path d="M4.17466 12.0002C3.22803 13.7802 6.36156 14.6668 8 14.6668C9.63843 14.6668 12.772 13.7802 11.8253 12.0002C11.1135 10.6615 9.67358 9.3335 8 9.3335C6.32641 9.3335 4.88653 10.6615 4.17466 12.0002Z" fill="#DC781B"/>
<path d="M5 8.00016C5 8.73654 4.40305 9.3335 3.66667 9.3335C2.93029 9.3335 2.33333 8.73654 2.33333 8.00016C2.33333 7.26378 2.93029 6.66683 3.66667 6.66683C4.40305 6.66683 5 7.26378 5 8.00016Z" fill="#DC781B"/>
<path d="M1.93049 12.9632C1.76679 13.293 1.36674 13.4277 1.03694 13.264C0.707138 13.1003 0.572484 12.7002 0.736178 12.3704C0.981101 11.877 1.35182 11.3815 1.81817 11.0024C2.28469 10.6232 2.88251 10.3335 3.56478 10.3335C3.93297 10.3335 4.23145 10.632 4.23145 11.0002C4.23145 11.3684 3.93297 11.6668 3.56478 11.6668C3.27079 11.6668 2.96052 11.7921 2.6592 12.0371C2.3577 12.2822 2.10082 12.62 1.93049 12.9632Z" fill="#DC781B"/>
<path d="M13.8734 8.00016C13.8734 8.73654 13.2764 9.3335 12.54 9.3335C11.8037 9.3335 11.2067 8.73654 11.2067 8.00016C11.2067 7.26378 11.8037 6.66683 12.54 6.66683C13.2764 6.66683 13.8734 7.26378 13.8734 8.00016Z" fill="#DC781B"/>
<path d="M15.2668 12.3704C15.4305 12.7002 15.2958 13.1003 14.966 13.264C14.6362 13.4277 14.2361 13.293 14.0724 12.9632C13.9021 12.62 13.6452 12.2822 13.3437 12.0371C13.0424 11.7921 12.7321 11.6668 12.4382 11.6668C12.07 11.6668 11.7715 11.3684 11.7715 11.0002C11.7715 10.632 12.07 10.3335 12.4382 10.3335C13.1204 10.3335 13.7182 10.6232 14.1848 11.0024C14.6511 11.3815 15.0218 11.877 15.2668 12.3704Z" fill="#DC781B"/>
</svg>
