<svg width="16" height="16" viewBox="0 0 16 16" fill="none" xmlns="http://www.w3.org/2000/svg">
<path fill-rule="evenodd" clip-rule="evenodd" d="M2.66666 3.33427H4.48718C4.53798 1.95525 6.28488 0.934707 7.53452 2.07075L8.33333 2.79694L9.13214 2.07075C10.3818 0.934707 12.1287 1.95525 12.1795 3.33427H13.3333C14.0697 3.33427 14.6667 3.93123 14.6667 4.66761V5.92687C14.6667 6.33597 14.335 6.66761 13.9259 6.66761H2.07407C1.66497 6.66761 1.33333 6.33597 1.33333 5.92687V4.66761C1.33333 3.93123 1.93028 3.33427 2.66666 3.33427ZM6.94226 3.33427H5.83826C5.89431 2.99991 6.32489 2.77303 6.63762 3.05733L6.94226 3.33427ZM10.8284 3.33427C10.7723 2.99991 10.3418 2.77303 10.029 3.05733L9.7244 3.33427H10.8284Z" fill="#DC781B"/>
<path d="M6.33333 9.12599V8.00094H2.07405V12.6676C2.07405 13.7722 2.96948 14.6676 4.07405 14.6676H11.9259C13.0305 14.6676 13.9259 13.7722 13.9259 12.6676V8.00094H9.66666V9.12599C9.66666 9.74727 8.948 10.0927 8.46286 9.70456C8.19225 9.48808 7.80774 9.48808 7.53713 9.70456C7.05199 10.0927 6.33333 9.74727 6.33333 9.12599Z" fill="#DC781B"/>
</svg>
