<svg width="16" height="16" viewBox="0 0 16 16" fill="none" xmlns="http://www.w3.org/2000/svg">
<path d="M8.66666 8.00037C8.66666 7.63218 8.36818 7.3337 7.99999 7.3337C7.6318 7.3337 7.33333 7.63218 7.33333 8.00037C7.33333 8.36856 7.6318 8.66703 7.99999 8.66703C8.36818 8.66703 8.66666 8.36856 8.66666 8.00037Z" fill="#71717A"/>
<path fill-rule="evenodd" clip-rule="evenodd" d="M14.6667 6.12891V11.4545C14.6667 12.5107 13.8455 13.3836 12.7898 13.4158C12.157 13.4351 11.4194 13.4493 10.6667 13.4462C10.1327 13.4439 8.69527 13.0969 7.42499 12.7903C6.50371 12.5679 5.67033 12.3667 5.33333 12.3337C4.50116 12.2521 3.79643 12.1889 3.22139 12.1405C2.16301 12.0514 1.33333 11.1689 1.33333 10.1068V4.77945C1.33333 3.63194 2.2959 2.72752 3.4392 2.82566C3.97152 2.87135 4.6034 2.92881 5.33333 3.00037C5.67033 3.03341 6.5037 3.23457 7.42499 3.45696C8.69527 3.76359 10.1327 4.11056 10.6667 4.11282C11.3225 4.1156 11.9669 4.10516 12.5404 4.08966C13.6935 4.0585 14.6667 4.9754 14.6667 6.12891ZM3.39404 4.27813C3.02725 4.24604 2.70389 4.51737 2.6718 4.88416C2.63971 5.25095 2.91104 5.5743 3.27783 5.60639L4.60609 5.7226C4.97288 5.75469 5.29623 5.48336 5.32832 5.11657C5.36041 4.74979 5.08908 4.42643 4.7223 4.39434L3.39404 4.27813ZM10.6718 5.55083C10.7039 5.18404 11.0272 4.91271 11.394 4.9448L12.7223 5.06101C13.0891 5.0931 13.3604 5.41645 13.3283 5.78324C13.2962 6.15003 12.9729 6.42136 12.6061 6.38927L11.2778 6.27306C10.911 6.24097 10.6397 5.91761 10.6718 5.55083ZM3.39404 10.0029C3.02725 9.97081 2.70389 10.2421 2.6718 10.6089C2.63971 10.9757 2.91104 11.2991 3.27783 11.3312L4.60609 11.4474C4.97288 11.4795 5.29623 11.2081 5.32832 10.8413C5.36041 10.4746 5.08908 10.1512 4.7223 10.1191L3.39404 10.0029ZM10.6718 11.5508C10.7039 11.184 11.0272 10.9127 11.394 10.9448L12.7223 11.061C13.0891 11.0931 13.3604 11.4165 13.3283 11.7832C13.2962 12.15 12.9729 12.4214 12.6061 12.3893L11.2778 12.2731C10.911 12.241 10.6397 11.9176 10.6718 11.5508ZM7.99999 6.00037C9.10456 6.00037 9.99999 6.8958 9.99999 8.00037C9.99999 9.10494 9.10456 10.0004 7.99999 10.0004C6.89542 10.0004 5.99999 9.10494 5.99999 8.00037C5.99999 6.8958 6.89542 6.00037 7.99999 6.00037Z" fill="#71717A"/>
</svg>
