<svg width="15" height="14" viewBox="0 0 15 14" fill="none" xmlns="http://www.w3.org/2000/svg">
<path fill-rule="evenodd" clip-rule="evenodd" d="M2 6.66667C1.07953 6.66667 0.333333 5.92047 0.333333 5L0.333333 1.66667C0.333333 0.746192 1.07953 0 2 0H5.33333C6.25381 0 7 0.746192 7 1.66667V5C7 5.92047 6.25381 6.66667 5.33333 6.66667H2ZM1.66667 5C1.66667 5.18409 1.8159 5.33333 2 5.33333L5.33333 5.33333C5.51743 5.33333 5.66667 5.18409 5.66667 5V1.66667C5.66667 1.48257 5.51743 1.33333 5.33333 1.33333L2 1.33333C1.8159 1.33333 1.66667 1.48257 1.66667 1.66667L1.66667 5Z" fill="#71717A"/>
<path fill-rule="evenodd" clip-rule="evenodd" d="M4.45069 7.79616C3.83359 7.17906 2.83307 7.17906 2.21598 7.79616L0.462825 9.54931C-0.154275 10.1664 -0.154275 11.1669 0.462825 11.784L2.21598 13.5372C2.83308 14.1543 3.83359 14.1543 4.45069 13.5372L6.20384 11.784C6.82094 11.1669 6.82094 10.1664 6.20384 9.54931L4.45069 7.79616ZM3.15878 8.73897C3.25518 8.64257 3.41148 8.64257 3.50788 8.73897L5.26103 10.4921C5.35743 10.5885 5.35743 10.7448 5.26103 10.8412L3.50788 12.5944C3.41148 12.6908 3.25518 12.6908 3.15878 12.5944L1.40563 10.8412C1.30923 10.7448 1.30923 10.5885 1.40563 10.4921L3.15878 8.73897Z" fill="#71717A"/>
<path fill-rule="evenodd" clip-rule="evenodd" d="M7.66667 12.3333C7.66667 13.2538 8.41286 14 9.33333 14H12.6667C13.5871 14 14.3333 13.2538 14.3333 12.3333V9C14.3333 8.07953 13.5871 7.33333 12.6667 7.33333H9.33333C8.41286 7.33333 7.66667 8.07953 7.66667 9V12.3333ZM9.33333 12.6667C9.14924 12.6667 9 12.5174 9 12.3333V9C9 8.81591 9.14924 8.66667 9.33333 8.66667H12.6667C12.8508 8.66667 13 8.81591 13 9V12.3333C13 12.5174 12.8508 12.6667 12.6667 12.6667H9.33333Z" fill="#71717A"/>
<path fill-rule="evenodd" clip-rule="evenodd" d="M7.66667 3.33333C7.66667 5.17428 9.15905 6.66667 11 6.66667C12.8409 6.66667 14.3333 5.17428 14.3333 3.33333C14.3333 1.49238 12.8409 0 11 0C9.15905 0 7.66667 1.49238 7.66667 3.33333ZM11 1.33333C12.1046 1.33333 13 2.22876 13 3.33333C13 4.4379 12.1046 5.33333 11 5.33333C9.89543 5.33333 9 4.4379 9 3.33333C9 2.22876 9.89543 1.33333 11 1.33333Z" fill="#71717A"/>
</svg>
