<svg width="16" height="16" viewBox="0 0 16 16" fill="none" xmlns="http://www.w3.org/2000/svg">
<path fill-rule="evenodd" clip-rule="evenodd" d="M4.5224 4.03888C4.60729 3.62928 4.72799 3.21283 4.89801 2.81927C5.13794 2.26389 5.48949 1.72254 6.00743 1.31845C6.53504 0.906826 7.19848 0.666992 8.00001 0.666992C8.80153 0.666992 9.46498 0.906826 9.99258 1.31845C10.5105 1.72254 10.8621 2.26389 11.102 2.81928C11.272 3.21283 11.3927 3.62928 11.4776 4.03888C12.2122 4.186 12.8194 4.74163 13.0073 5.48816C15.3608 14.8389 13.2676 14.7678 9.47742 14.6391C9.00912 14.6232 8.51492 14.6064 8 14.6064C7.48509 14.6064 6.99089 14.6232 6.5226 14.6391C2.73237 14.7678 0.639204 14.8389 2.99274 5.48816C3.18064 4.74163 3.78781 4.186 4.5224 4.03888ZM5.90026 4.00033C5.95944 3.77537 6.03244 3.55539 6.12201 3.34804C6.30209 2.9312 6.53553 2.59756 6.82759 2.3697C7.10998 2.14938 7.48154 2.00033 8.00001 2.00033C8.51848 2.00033 8.89003 2.14938 9.17242 2.3697C9.46449 2.59756 9.69793 2.9312 9.878 3.34804C9.96757 3.55539 10.0406 3.77536 10.0997 4.00033H5.90026Z" fill="#71717A"/>
</svg>
