<svg width="16" height="16" viewBox="0 0 16 16" fill="none" xmlns="http://www.w3.org/2000/svg">
<path fill-rule="evenodd" clip-rule="evenodd" d="M2.66667 12.542V3.33398C2.66667 2.22941 3.5621 1.33398 4.66667 1.33398H11.3333C12.4379 1.33398 13.3333 2.22942 13.3333 3.33398V12.542C13.3333 13.8247 11.9834 14.659 10.8361 14.0854C10.7235 14.0291 10.6051 13.9852 10.4829 13.9547L8.48508 13.4553C8.1666 13.3756 7.83341 13.3756 7.51493 13.4553L5.5171 13.9547C5.39496 13.9852 5.27653 14.0291 5.16392 14.0854C4.01659 14.659 2.66667 13.8247 2.66667 12.542ZM5.33334 4.00065C4.96515 4.00065 4.66667 4.29913 4.66667 4.66732C4.66667 5.03551 4.96515 5.33398 5.33334 5.33398H10.6667C11.0349 5.33398 11.3333 5.03551 11.3333 4.66732C11.3333 4.29913 11.0349 4.00065 10.6667 4.00065H5.33334ZM4.66667 8.00065C4.66667 7.63246 4.96515 7.33398 5.33334 7.33398H10.6667C11.0349 7.33398 11.3333 7.63246 11.3333 8.00065C11.3333 8.36884 11.0349 8.66732 10.6667 8.66732H5.33334C4.96515 8.66732 4.66667 8.36884 4.66667 8.00065ZM5.33334 10.6673C4.96515 10.6673 4.66667 10.9658 4.66667 11.334C4.66667 11.7022 4.96515 12.0007 5.33334 12.0007H7.11112C7.47931 12.0007 7.77778 11.7022 7.77778 11.334C7.77778 10.9658 7.47931 10.6673 7.11112 10.6673H5.33334ZM8.88889 10.6673C8.5207 10.6673 8.22223 10.9658 8.22223 11.334C8.22223 11.7022 8.5207 12.0007 8.88889 12.0007H10.6667C11.0349 12.0007 11.3333 11.7022 11.3333 11.334C11.3333 10.9658 11.0349 10.6673 10.6667 10.6673H8.88889Z" fill="#DC781B"/>
</svg>
