<svg width="16" height="16" viewBox="0 0 16 16" fill="none" xmlns="http://www.w3.org/2000/svg">
<path fill-rule="evenodd" clip-rule="evenodd" d="M4.5224 4.03839C4.60729 3.62879 4.72799 3.21234 4.89801 2.81879C5.13794 2.2634 5.48949 1.72205 6.00743 1.31796C6.53504 0.906338 7.19848 0.666504 8.00001 0.666504C8.80153 0.666504 9.46498 0.906338 9.99258 1.31797C10.5105 1.72205 10.8621 2.26341 11.102 2.81879C11.272 3.21235 11.3927 3.62879 11.4776 4.03839C12.2122 4.18551 12.8194 4.74114 13.0073 5.48767C15.3608 14.8384 13.2676 14.7673 9.47742 14.6386C9.00912 14.6227 8.51492 14.6059 8 14.6059C7.48509 14.6059 6.99089 14.6227 6.5226 14.6386C2.73237 14.7673 0.639204 14.8384 2.99274 5.48767C3.18064 4.74114 3.78781 4.18551 4.5224 4.03839ZM5.90026 3.99984C5.95944 3.77488 6.03244 3.5549 6.12201 3.34756C6.30209 2.93071 6.53553 2.59707 6.82759 2.36921C7.10998 2.14889 7.48154 1.99984 8.00001 1.99984C8.51848 1.99984 8.89003 2.14889 9.17242 2.36921C9.46449 2.59707 9.69793 2.93071 9.878 3.34755C9.96757 3.5549 10.0406 3.77488 10.0997 3.99984H5.90026Z" fill="#DC781B"/>
</svg>
