<svg width="16" height="16" viewBox="0 0 16 16" fill="none" xmlns="http://www.w3.org/2000/svg">
<path fill-rule="evenodd" clip-rule="evenodd" d="M1.66666 2.66667C1.66666 2.29848 1.96514 2 2.33333 2H3.33333C3.70152 2 3.99999 2.29848 3.99999 2.66667V3.77778L4.66666 4.66667H9.08918C9.03246 4.56861 8.99999 4.45476 8.99999 4.33333C8.99999 3.96514 9.29847 3.66667 9.66666 3.66667H12C12.3682 3.66667 12.6667 3.96514 12.6667 4.33333C12.6667 4.70152 12.3682 5 12 5H11.3568L11.0551 5.45255L12.3108 10.1616C12.3772 10.4106 12.2941 10.6757 12.0974 10.8422C11.9006 11.0087 11.6255 11.0469 11.3908 10.9402L4.99999 8.03534V10.3333C4.99999 10.7015 4.70152 11 4.33333 11C3.96514 11 3.66666 10.7015 3.66666 10.3333V5.55556L2.79999 4.4C2.71345 4.2846 2.66666 4.14425 2.66666 4V3.33333H2.33333C1.96514 3.33333 1.66666 3.03486 1.66666 2.66667ZM4.99999 6V6.57072L10.6593 9.14314L9.82114 6H4.99999Z" fill="#DC781B"/>
<path d="M3.16666 8.23531C2.08935 8.69048 1.33333 9.75696 1.33333 11C1.33333 12.6569 2.67647 14 4.33333 14C5.99018 14 7.33333 12.6569 7.33333 11C7.33333 10.4324 7.1757 9.90162 6.90182 9.44904L5.49999 8.81185V10.3333C5.49999 10.9777 4.97766 11.5 4.33333 11.5C3.689 11.5 3.16666 10.9777 3.16666 10.3333V8.23531Z" fill="#DC781B"/>
<path d="M8.66666 11C8.66666 10.7553 8.69596 10.5174 8.75125 10.2897L11.1839 11.3954C11.5946 11.5821 12.076 11.5153 12.4204 11.2238C12.7647 10.9324 12.9102 10.4686 12.7939 10.0327L12.2679 8.06026C13.6367 8.33872 14.6667 9.54906 14.6667 11C14.6667 12.6568 13.3235 14 11.6667 14C10.0098 14 8.66666 12.6568 8.66666 11Z" fill="#DC781B"/>
</svg>
