<svg width="16" height="16" viewBox="0 0 16 16" fill="none" xmlns="http://www.w3.org/2000/svg">
<path d="M1.89594 3.41401L1.51417 4.21725C1.20532 4.86705 1.29668 5.62225 1.75295 6.19113L1.84984 6.31193C1.99089 6.48779 2.15713 6.64749 2.36635 6.73145C2.94667 6.96436 3.62283 6.91308 4.16096 6.57762L4.23359 6.53234C4.83736 6.15595 5.61051 6.11094 6.25954 6.41439L7.06906 6.79288C7.65971 7.06904 8.35494 7.06904 8.94559 6.79288L9.75511 6.41439C10.4041 6.11094 11.1773 6.15595 11.7811 6.53234L11.8537 6.57762C12.4889 6.97362 13.3165 6.97362 13.9517 6.57762C14.5674 6.19377 14.8228 5.46606 14.5699 4.81573L14.0716 3.5344C13.7864 2.80108 13.0636 2.2955 12.2308 2.24683L8.00733 2L3.68227 2.25277C2.90195 2.29837 2.21348 2.74593 1.89594 3.41401Z" fill="#DC781B"/>
<path fill-rule="evenodd" clip-rule="evenodd" d="M4.40249 7.43467L4.33325 7.47574C3.7277 7.8349 2.9388 7.8349 2.33325 7.47574L2.5798 12.3014C2.62835 13.2517 3.50848 14 4.57774 14H11.4221C12.4913 14 13.3715 13.2517 13.42 12.3014L13.6666 7.47574C13.061 7.8349 12.2721 7.8349 11.6666 7.47574L11.5973 7.43467C11.0218 7.0933 10.2848 7.05248 9.66605 7.3277L8.89434 7.67098C8.33129 7.92145 7.66854 7.92145 7.10549 7.67098L6.33378 7.3277C5.71508 7.05248 4.97805 7.0933 4.40249 7.43467ZM6.47163 10.9638L6.66655 13.0448H9.33322L9.52814 10.9638C9.60265 10.1684 8.89707 9.48614 7.99988 9.48614C7.10269 9.48614 6.39712 10.1684 6.47163 10.9638Z" fill="#DC781B"/>
</svg>
