<svg width="43" height="30" viewBox="0 0 43 30" fill="none" xmlns="http://www.w3.org/2000/svg">
<path d="M25.3015 0.5C25.9856 0.5 26.5851 0.702193 27.0007 1.00391C27.4166 1.30596 27.6189 1.68095 27.6189 2.0459C27.6187 2.41069 27.4164 2.78499 27.0007 3.08691C26.5851 3.38863 25.9856 3.59082 25.3015 3.59082C24.6175 3.59078 24.0188 3.3886 23.6033 3.08691C23.1873 2.78494 22.9843 2.4108 22.9841 2.0459C22.9841 1.68085 23.1871 1.30601 23.6033 1.00391C24.0188 0.702227 24.6175 0.50004 25.3015 0.5Z" fill="#DC781B" stroke="#DC781B"/>
<path d="M23.6886 5.7952C23.6886 4.93181 23.9066 4.17358 24.2325 3.64774C24.5632 3.11451 24.955 2.88602 25.3019 2.88602C25.6487 2.88606 26.0406 3.1145 26.3712 3.64774C26.6972 4.17358 26.9151 4.93181 26.9152 5.7952C26.9152 6.65862 26.6972 7.41679 26.3712 7.94266C26.0406 8.47601 25.6488 8.70434 25.3019 8.70438C24.955 8.70438 24.5632 8.476 24.2325 7.94266C23.9066 7.41679 23.6886 6.65862 23.6886 5.7952Z" fill="#DC781B" stroke="#DC781B"/>
<path d="M5.78333 12C5.23104 12 4.78333 12.4477 4.78333 13C4.78333 13.5523 5.23104 14 5.78333 14V13V12ZM5.78333 13V14H11.5167V13V12H5.78333V13Z" fill="#DC781B"/>
<path d="M1 16C0.447715 16 4.93564e-08 16.4477 0 17C-4.93564e-08 17.5523 0.447715 18 1 18L1 17L1 16ZM1 17L1 18L11.566 18L11.566 17L11.566 16L1 16L1 17Z" fill="#DC781B"/>
<path d="M3.71545 20C3.16317 20 2.71545 20.4477 2.71545 21C2.71545 21.5523 3.16317 22 3.71545 22V21V20ZM3.71545 21V22H11.6191V21V20H3.71545V21Z" fill="#DC781B"/>
<path d="M25.3021 5.27272C34.7501 5.27296 42.4114 12.9667 42.4115 22.4173C42.4115 22.7514 42.1405 23.0226 41.809 23.0227H8.79431C8.46279 23.0225 8.19177 22.7514 8.19177 22.4173C8.1919 12.9665 15.8539 5.27272 25.3021 5.27272Z" fill="#DC781B" stroke="#DC781B"/>
<path d="M35.0142 26.2066H35.0151C34.7711 26.2107 34.5285 26.277 34.3325 26.4088C34.1399 26.5383 33.9406 26.7756 33.9487 27.105L33.9478 27.106L33.9487 27.108V27.1099C33.9608 27.5465 34.3241 27.7731 34.5288 27.8599L34.5337 27.8609C34.4834 27.8844 34.435 27.9114 34.3892 27.942C34.1975 28.0699 33.9949 28.3069 34.0054 28.6392L34.0044 28.6402L34.0054 28.6431C34.0055 28.646 34.0043 28.649 34.0044 28.6519L34.0054 28.6509C34.0217 29.0888 34.386 29.3144 34.606 29.4009L34.6948 29.4351H35.9966L34.644 29.4996C33.5658 29.4838 32.7158 28.829 32.4771 28.0338L32.3706 27.6793L32.0015 27.6773C23.2714 27.628 15.6295 28.1308 10.9175 28.9752L10.897 28.9781L10.8774 28.9839C10.7721 29.012 10.66 29.033 10.5474 29.0464H10.5435L10.5161 29.0494L10.2388 29.065C9.0696 29.0434 8.19189 28.1641 8.19189 27.1861C8.19085 26.2139 9.05995 25.3686 10.2251 25.3863H10.228C10.2726 25.3867 10.3177 25.3896 10.3628 25.3931L10.4966 25.4078C10.4991 25.4082 10.5017 25.4084 10.5044 25.4088C10.6315 25.4272 10.7477 25.4516 10.8599 25.4849L10.8794 25.4908L10.8999 25.4957C15.6129 26.484 23.2559 27.2188 31.9829 27.4341L32.3628 27.4439L32.4741 27.0797C32.7022 26.3277 33.5205 25.7617 34.6235 25.7769L38.8013 26.1031L35.0142 26.2066ZM10.437 25.3951C10.4297 25.3931 10.4236 25.3912 10.4204 25.3902C10.4193 25.3899 10.418 25.3894 10.4175 25.3892H10.4185L10.436 25.3951H10.437Z" fill="#DC781B" stroke="#DC781B"/>
</svg>
