<svg width="1038" height="361" viewBox="0 0 1038 361" fill="none" xmlns="http://www.w3.org/2000/svg">
<g opacity="0.976">
<path fill-rule="evenodd" clip-rule="evenodd" d="M283 0C288.333 0 293.667 0 299 0C315.204 5.03582 324.871 15.8691 328 32.5C327.103 36.5264 325.437 40.1931 323 43.5C319.751 46.0426 316.251 48.2092 312.5 50C311.716 55.3869 311.882 60.7202 313 66C366.921 71.0466 412.421 93.0466 449.5 132C482.995 173.982 499.495 221.982 499 276C495.16 278.421 491.16 280.588 487 282.5C355.997 283.431 224.997 284.098 94 284.5C91.8333 281.667 89.6667 278.833 87.5 276C86.6697 270.692 86.1697 265.359 86 260C68.9967 260.167 51.9967 260 35 259.5C28.4661 252.753 28.4661 246.086 35 239.5C52.3333 239.167 69.6667 238.833 87 238.5C88.3925 232.373 89.7259 226.206 91 220C61.6794 220.124 32.346 219.79 3 219C2.22549 217.104 1.22549 215.437 0 214C0 211 0 208 0 205C0.803736 203.311 1.80374 201.645 3 200C34.9948 199.167 66.9948 198.667 99 198.5C100.513 193.784 102.18 189.117 104 184.5C89.3333 184.167 74.6667 183.833 60 183.5C55.4529 177.49 55.4529 171.323 60 165C77.6308 164.99 95.2975 164.823 113 164.5C133.708 135.458 158.708 110.792 188 90.5C211.888 75.7043 237.888 67.2043 266 65C267.47 60.5883 269.137 56.255 271 52C266.295 48.4604 262.462 44.1271 259.5 39C256.947 31.2006 257.947 23.8672 262.5 17C264.833 14 267.167 11 269.5 8C273.683 4.6637 278.183 1.99703 283 0Z" fill="#DC781B"/>
<path fill-rule="evenodd" clip-rule="evenodd" d="M568 215C588.243 212.101 601.243 220.268 607 239.5C602.128 239.746 597.295 240.246 592.5 241C591.728 240.855 591.061 240.522 590.5 240C586.656 229.039 579.156 225.539 568 229.5C561.127 234.071 557.627 240.571 557.5 249C556.131 259.231 559.298 267.731 567 274.5C578.44 278.948 586.44 275.448 591 264C596.292 263.005 601.625 262.672 607 263C601.725 284.65 588.059 293.15 566 288.5C552.908 284.404 545.074 275.571 542.5 262C538.045 238.888 546.545 223.221 568 215Z" fill="#DC781B"/>
<path fill-rule="evenodd" clip-rule="evenodd" d="M711 215C738.45 212.623 752.45 225.123 753 252.5C752.969 278.531 739.969 290.864 714 289.5C699.936 287.438 690.769 279.605 686.5 266C682.038 249.695 685.205 235.195 696 222.5C700.545 218.894 705.545 216.394 711 215ZM714 228C727.918 226.748 735.752 233.081 737.5 247C738.614 255.098 737.28 262.765 733.5 270C723.527 279.595 713.86 279.262 704.5 269C698.548 257.2 698.881 245.533 705.5 234C708.137 231.609 710.97 229.609 714 228Z" fill="#DC781B"/>
<path fill-rule="evenodd" clip-rule="evenodd" d="M617 216C622.333 216 627.667 216 633 216C633 225.667 633 235.333 633 245C641.667 245 650.333 245 659 245C659 235.333 659 225.667 659 216C664.333 216 669.667 216 675 216C675 240 675 264 675 288C669.667 288 664.333 288 659 288C659 278.333 659 268.667 659 259C650.333 259 641.667 259 633 259C633 268.667 633 278.333 633 288C627.667 288 622.333 288 617 288C617 264 617 240 617 216Z" fill="#DC781B"/>
<path fill-rule="evenodd" clip-rule="evenodd" d="M755 216C760.375 215.672 765.708 216.005 771 217C774.843 232.705 778.843 248.371 783 264C787.313 248.082 791.313 232.082 795 216C799.667 216 804.333 216 809 216C812.552 232.209 816.718 248.209 821.5 264C825.652 248.059 829.485 232.059 833 216C838.333 216 843.667 216 849 216C842.995 239.684 836.829 263.351 830.5 287C824.759 287.975 818.925 288.308 813 288C809.819 273.941 806.319 259.941 802.5 246C798.052 259.787 794.219 273.787 791 288C785.294 288.329 779.628 287.995 774 287C767.458 263.377 761.125 239.711 755 216Z" fill="#DC781B"/>
<path fill-rule="evenodd" clip-rule="evenodd" d="M854 216C873.333 216 892.667 216 912 216C911.42 220.31 911.086 224.643 911 229C903.976 228.935 896.976 229.268 890 230C890 249.333 890 268.667 890 288C885 288 880 288 875 288C875 268.333 875 248.667 875 229C867.976 228.935 860.976 229.268 854 230C854 225.333 854 220.667 854 216Z" fill="#DC781B"/>
<path fill-rule="evenodd" clip-rule="evenodd" d="M932 216C937.706 215.671 943.372 216.005 949 217C957.573 240.555 966.24 264.055 975 287.5C969.636 288.329 964.302 288.163 959 287C957.137 282.745 955.47 278.412 954 274C945.018 272.835 936.018 272.668 927 273.5C925.031 278.24 923.365 283.073 922 288C916.625 288.328 911.292 287.995 906 287C914.675 263.305 923.342 239.638 932 216ZM940 234C943.769 242.304 946.769 250.971 949 260C942.991 260.166 936.991 259.999 931 259.5C934.101 251.031 937.101 242.531 940 234Z" fill="#DC781B"/>
<path fill-rule="evenodd" clip-rule="evenodd" d="M1038 234C1038 238 1038 242 1038 246C1035.27 253.228 1030.27 258.394 1023 261.5C1014.4 262.876 1005.74 263.376 997 263C997.74 271.312 998.073 279.646 998 288C992.667 288 987.333 288 982 288C982 264 982 240 982 216C995.042 215.647 1008.04 216.147 1021 217.5C1029.88 219.885 1035.55 225.385 1038 234ZM997 230C1003.34 229.834 1009.68 230 1016 230.5C1021.67 233.268 1023.51 237.768 1021.5 244C1020.72 245.786 1019.55 247.286 1018 248.5C1011.42 249.877 1004.76 250.377 998 250C998.109 243.304 997.776 236.637 997 230Z" fill="#DC781B"/>
<path fill-rule="evenodd" clip-rule="evenodd" d="M487 361C451 361 415 361 379 361C369.927 356.095 362.593 349.262 357 340.5C323.989 338.513 290.989 338.846 258 341.5C204.575 345.51 151.241 350.176 98 355.5C90.3596 351.427 83.5263 346.26 77.5 340C72.4346 333.077 71.768 325.743 75.5 318C82.5246 309.411 91.358 303.744 102 301C135.465 306.737 169.132 310.904 203 313.5C255.261 318.037 307.594 321.037 360 322.5C363.706 312.808 370.706 307.141 381 305.5C415.989 306.257 450.989 307.257 486 308.5C489.493 312.441 489.826 316.608 487 321C454.674 322 422.34 322.333 390 322C390 324.667 390 327.333 390 330C422.323 328.91 454.656 328.743 487 329.5C490.642 332.256 490.975 335.423 488 339C455.34 340 422.673 340.333 390 340C390 342.333 390 344.667 390 347C422.332 346.282 454.665 346.115 487 346.5C490.706 351.222 490.706 356.056 487 361Z" fill="#DC781B"/>
</g>
</svg>
